<svg width="84" height="17" viewBox="0 0 84 17" fill="none" xmlns="http://www.w3.org/2000/svg">
<path d="M10.5755 13.7329L9.42895 10.2412H4.47915L3.33259 13.7329H0.853027L5.62571 0.22467H8.33831L13.111 13.7329H10.5755ZM6.92142 2.61178L5.03845 8.3783H8.86033L6.98667 2.61178H6.92142Z" fill="white"/>
<path d="M19.748 3.64152C21.0033 3.64152 22.0007 4.10022 22.7403 5.01762C23.4798 5.93502 23.8495 7.18631 23.8495 8.77148C23.8495 10.3504 23.4829 11.5986 22.7496 12.516C22.0163 13.4334 21.0282 13.8921 19.7853 13.8921C19.0769 13.8921 18.4523 13.7329 17.9117 13.4146C17.371 13.0901 16.9639 12.647 16.6905 12.0854H16.6439V17H14.3228V3.81002H16.588V5.52313H16.6346C16.9205 4.93649 17.3337 4.47779 17.8744 4.14703C18.415 3.81002 19.0396 3.64152 19.748 3.64152ZM19.0396 11.9824C19.7915 11.9824 20.385 11.6953 20.82 11.1211C21.255 10.5407 21.4725 9.75753 21.4725 8.77148C21.4725 7.79167 21.2519 7.01156 20.8107 6.43117C20.3757 5.85077 19.7853 5.56057 19.0396 5.56057C18.3187 5.56057 17.7376 5.85389 17.2964 6.44053C16.8552 7.02717 16.6315 7.80415 16.6253 8.77148C16.6315 9.74504 16.8552 10.5251 17.2964 11.1118C17.7376 11.6922 18.3187 11.9824 19.0396 11.9824Z" fill="white"/>
<path d="M30.7662 3.64152C32.0215 3.64152 33.0189 4.10022 33.7585 5.01762C34.498 5.93502 34.8677 7.18631 34.8677 8.77148C34.8677 10.3504 34.5011 11.5986 33.7678 12.516C33.0345 13.4334 32.0464 13.8921 30.8035 13.8921C30.0951 13.8921 29.4705 13.7329 28.9298 13.4146C28.3892 13.0901 27.9821 12.647 27.7087 12.0854H27.6621V17H25.341V3.81002H27.6062V5.52313H27.6528C27.9386 4.93649 28.3519 4.47779 28.8926 4.14703C29.4332 3.81002 30.0578 3.64152 30.7662 3.64152ZM30.0578 11.9824C30.8097 11.9824 31.4032 11.6953 31.8382 11.1211C32.2732 10.5407 32.4907 9.75753 32.4907 8.77148C32.4907 7.79167 32.2701 7.01156 31.8289 6.43117C31.3939 5.85077 30.8035 5.56057 30.0578 5.56057C29.3369 5.56057 28.7558 5.85389 28.3146 6.44053C27.8734 7.02717 27.6497 7.80415 27.6435 8.77148C27.6497 9.74504 27.8734 10.5251 28.3146 11.1118C28.7558 11.6922 29.3369 11.9824 30.0578 11.9824Z" fill="white"/>
<path d="M39.8641 9.93227H42.1946C42.2691 10.5501 42.5861 11.0494 43.1454 11.4301C43.7047 11.8045 44.3976 11.9917 45.2241 11.9917C46.032 11.9917 46.6907 11.8108 47.2003 11.4488C47.7161 11.0868 47.974 10.625 47.974 10.0633C47.974 9.57654 47.7875 9.18337 47.4147 8.88381C47.0418 8.57801 46.4328 8.32526 45.5876 8.12555L43.8445 7.71366C42.6078 7.42658 41.6881 6.98036 41.0853 6.375C40.4887 5.76964 40.1904 4.9833 40.1904 4.01597C40.1904 2.82397 40.6565 1.85664 41.5886 1.11399C42.5208 0.371329 43.7233 0 45.1961 0C46.6752 0 47.8652 0.368209 48.7663 1.10463C49.6736 1.8348 50.1428 2.79589 50.1739 3.98789H47.8808C47.8248 3.35756 47.5545 2.86454 47.0698 2.50881C46.5851 2.14684 45.9543 1.96586 45.1775 1.96586C44.4193 1.96586 43.8041 2.13748 43.3318 2.48073C42.8657 2.82397 42.6327 3.27643 42.6327 3.83811C42.6327 4.28745 42.8129 4.65253 43.1733 4.93337C43.54 5.21421 44.1366 5.45448 44.9631 5.65419L46.5105 6.00991C47.8714 6.32195 48.8595 6.77753 49.4748 7.37665C50.09 7.97577 50.3976 8.77772 50.3976 9.78249C50.3976 11.0619 49.9191 12.0791 48.9621 12.8343C48.0113 13.5832 46.7218 13.9576 45.0936 13.9576C43.54 13.9576 42.2909 13.5988 41.3463 12.8811C40.4079 12.1571 39.9139 11.1742 39.8641 9.93227Z" fill="white"/>
<path d="M52.6255 1.48844H54.9466V3.81002H56.8109V5.60738H54.9466V10.7654C54.9466 11.1711 55.0429 11.4706 55.2355 11.6641C55.4282 11.8576 55.7296 11.9543 56.1397 11.9543C56.4132 11.9543 56.6338 11.9387 56.8016 11.9075V13.6861C56.5219 13.7485 56.1211 13.7797 55.5991 13.7797C54.5302 13.7797 53.7658 13.5738 53.306 13.1619C52.8523 12.75 52.6255 12.0604 52.6255 11.0931V5.60738H51.2086V3.81002H52.6255V1.48844Z" fill="white"/>
<path d="M66.0673 12.5534C65.2035 13.4708 64.0414 13.9295 62.581 13.9295C61.1206 13.9295 59.9585 13.4708 59.0947 12.5534C58.2309 11.6298 57.799 10.3691 57.799 8.77148C57.799 7.18007 58.234 5.92254 59.104 4.9989C59.9741 4.06902 61.133 3.60408 62.581 3.60408C64.0352 3.60408 65.1942 4.06902 66.058 4.9989C66.928 5.92254 67.363 7.18007 67.363 8.77148C67.363 10.3691 66.9311 11.6298 66.0673 12.5534ZM60.8099 11.2148C61.2449 11.7952 61.8353 12.0854 62.581 12.0854C63.3267 12.0854 63.9171 11.7952 64.3521 11.2148C64.7871 10.6344 65.0046 9.81993 65.0046 8.77148C65.0046 7.72926 64.7871 6.91795 64.3521 6.33756C63.9171 5.75092 63.3267 5.4576 62.581 5.4576C61.8415 5.4576 61.2511 5.75092 60.8099 6.33756C60.3749 6.91795 60.1574 7.72926 60.1574 8.77148C60.1574 9.81993 60.3749 10.6344 60.8099 11.2148Z" fill="white"/>
<path d="M68.8545 13.7329V3.81002H71.0824V5.54185H71.129C71.2968 4.93649 71.5857 4.46843 71.9959 4.13767C72.4122 3.8069 72.9125 3.64152 73.4967 3.64152C73.7017 3.64152 73.9441 3.67272 74.2237 3.73513V5.84141C73.9938 5.75404 73.68 5.71035 73.2823 5.71035C72.6235 5.71035 72.1077 5.91006 71.7349 6.30947C71.362 6.70888 71.1756 7.25808 71.1756 7.95705V13.7329H68.8545Z" fill="white"/>
<path d="M79.3041 5.41079C78.6578 5.41079 78.1171 5.63546 77.6821 6.0848C77.2533 6.5279 77.014 7.09894 76.9643 7.79791H81.5785C81.5537 7.0927 81.3331 6.51854 80.9167 6.07544C80.5003 5.63234 79.9628 5.41079 79.3041 5.41079ZM81.5879 10.7654H83.7598C83.6107 11.7078 83.1353 12.4723 82.3336 13.0589C81.5319 13.6393 80.55 13.9295 79.3879 13.9295C77.9089 13.9295 76.7468 13.4739 75.9016 12.5628C75.0565 11.6454 74.6339 10.3941 74.6339 8.80892C74.6339 7.23623 75.0534 5.97559 75.8923 5.02698C76.7375 4.07838 77.8716 3.60408 79.2947 3.60408C80.693 3.60408 81.8023 4.05653 82.6226 4.96145C83.4429 5.86013 83.853 7.06461 83.853 8.57489V9.33315H76.9457V9.47357C76.9457 10.2724 77.1694 10.9152 77.6168 11.402C78.0705 11.8888 78.6764 12.1322 79.4346 12.1322C79.969 12.1322 80.4289 12.0105 80.8142 11.7671C81.2057 11.5174 81.4636 11.1836 81.5879 10.7654Z" fill="white"/>
</svg>
