<svg width="27" height="34" viewBox="0 0 27 34" fill="none" xmlns="http://www.w3.org/2000/svg">
<path d="M22.496 18.4998C22.4609 14.3122 25.9232 12.277 26.0752 12.1834C24.1101 9.32932 21.0689 8.93162 20.0045 8.89653C17.4546 8.6275 14.9748 10.4288 13.6764 10.4288C12.3547 10.4288 10.3428 8.93162 8.19056 8.96671C5.41838 9.0135 2.80995 10.616 1.39462 13.1191C-1.54132 18.2073 0.646012 25.6934 3.46498 29.8107C4.88032 31.8226 6.51789 34.0801 8.68184 33.9983C10.7873 33.9164 11.5827 32.6531 14.1209 32.6531C16.6475 32.6531 17.3844 33.9983 19.5834 33.9515C21.8526 33.9164 23.268 31.9279 24.6365 29.8926C26.2624 27.5883 26.9174 25.3074 26.9408 25.1904C26.8823 25.167 22.5428 23.5061 22.496 18.4998Z" fill="white"/>
<path d="M18.3437 6.19422C19.4783 4.77888 20.2503 2.84888 20.0397 0.883789C18.4021 0.953971 16.3435 2.0184 15.1621 3.41034C14.1211 4.63852 13.1853 6.6387 13.4192 8.52192C15.2674 8.66228 17.1623 7.58616 18.3437 6.19422Z" fill="white"/>
</svg>
