<svg width="104" height="19" viewBox="0 0 104 19" fill="none" xmlns="http://www.w3.org/2000/svg">
<path d="M7.16947 6.68154H13.8801C13.9183 6.83921 13.9502 7.02974 13.9757 7.25311C14.0012 7.47649 14.0139 7.69986 14.0139 7.92324C14.0139 8.82988 13.8801 9.68396 13.6124 10.4855C13.3448 11.287 12.9242 12.0031 12.3506 12.6338C11.7388 13.3039 11.0059 13.823 10.152 14.1909C9.298 14.5588 8.32296 14.7427 7.22682 14.7427C6.23266 14.7427 5.29585 14.5588 4.41639 14.1909C3.53694 13.823 2.77219 13.3105 2.12216 12.6535C1.47213 11.9965 0.955929 11.2213 0.573557 10.3278C0.191186 9.42116 0 8.43569 0 7.37137C0 6.30705 0.191186 5.32815 0.573557 4.43465C0.955929 3.52801 1.47213 2.7462 2.12216 2.08921C2.77219 1.43223 3.53694 0.919778 4.41639 0.551867C5.29585 0.183956 6.23266 0 7.22682 0C8.3357 0 9.32349 0.197096 10.1902 0.591287C11.0697 0.985478 11.8217 1.53077 12.4462 2.22718L10.6682 4.02075C10.2221 3.53458 9.72499 3.16667 9.17692 2.91701C8.62885 2.65422 7.97245 2.52282 7.20771 2.52282C6.58317 2.52282 5.99049 2.64108 5.42968 2.87759C4.86887 3.10097 4.37816 3.42289 3.95755 3.84336C3.53694 4.26383 3.19918 4.77628 2.94426 5.38071C2.70209 5.97199 2.58101 6.63555 2.58101 7.37137C2.58101 8.10719 2.70209 8.77732 2.94426 9.38174C3.19918 9.97303 3.53694 10.4789 3.95755 10.8994C4.3909 11.3198 4.88798 11.6483 5.4488 11.8849C6.00961 12.1082 6.60866 12.2199 7.24594 12.2199C7.97245 12.2199 8.58424 12.1148 9.08133 11.9046C9.59116 11.6812 10.0245 11.3987 10.3814 11.0571C10.6363 10.8205 10.853 10.5249 11.0314 10.1701C11.2226 9.80221 11.3692 9.39488 11.4711 8.94813H7.16947V6.68154Z" fill="white"/>
<path d="M20.1832 4.45436C20.9098 4.45436 21.5725 4.58575 22.1716 4.84855C22.7834 5.0982 23.306 5.45297 23.7393 5.91286C24.1854 6.35961 24.5295 6.89834 24.7717 7.52905C25.0266 8.15975 25.1541 8.84959 25.1541 9.59855C25.1541 10.3475 25.0266 11.0373 24.7717 11.668C24.5295 12.2988 24.1854 12.8441 23.7393 13.3039C23.306 13.7507 22.7834 14.1055 22.1716 14.3683C21.5725 14.6179 20.9098 14.7427 20.1832 14.7427C19.4567 14.7427 18.7876 14.6179 18.1758 14.3683C17.5767 14.1055 17.0542 13.7507 16.6081 13.3039C16.1747 12.8441 15.8306 12.2988 15.5757 11.668C15.3335 11.0373 15.2124 10.3475 15.2124 9.59855C15.2124 8.84959 15.3335 8.15975 15.5757 7.52905C15.8306 6.89834 16.1747 6.35961 16.6081 5.91286C17.0542 5.45297 17.5767 5.0982 18.1758 4.84855C18.7876 4.58575 19.4567 4.45436 20.1832 4.45436ZM20.1832 12.3579C20.5019 12.3579 20.8078 12.2988 21.1009 12.1805C21.4068 12.0491 21.6745 11.8651 21.9039 11.6286C22.1333 11.3921 22.3118 11.103 22.4392 10.7614C22.5794 10.4198 22.6495 10.0322 22.6495 9.59855C22.6495 9.16494 22.5794 8.77732 22.4392 8.43568C22.3118 8.09405 22.1333 7.80498 21.9039 7.56847C21.6745 7.33195 21.4068 7.15456 21.1009 7.03631C20.8078 6.90491 20.5019 6.83921 20.1832 6.83921C19.8519 6.83921 19.5396 6.90491 19.2464 7.03631C18.9533 7.15456 18.692 7.33195 18.4626 7.56847C18.2332 7.80498 18.0483 8.09405 17.9081 8.43568C17.7807 8.77732 17.717 9.16494 17.717 9.59855C17.717 10.0322 17.7807 10.4198 17.9081 10.7614C18.0483 11.103 18.2332 11.3921 18.4626 11.6286C18.692 11.8651 18.9533 12.0491 19.2464 12.1805C19.5396 12.2988 19.8519 12.3579 20.1832 12.3579Z" fill="white"/>
<path d="M31.1988 4.45436C31.9253 4.45436 32.5881 4.58575 33.1872 4.84855C33.799 5.0982 34.3215 5.45297 34.7549 5.91286C35.201 6.35961 35.5451 6.89834 35.7873 7.52905C36.0422 8.15975 36.1697 8.84959 36.1697 9.59855C36.1697 10.3475 36.0422 11.0373 35.7873 11.668C35.5451 12.2988 35.201 12.8441 34.7549 13.3039C34.3215 13.7507 33.799 14.1055 33.1872 14.3683C32.5881 14.6179 31.9253 14.7427 31.1988 14.7427C30.4723 14.7427 29.8032 14.6179 29.1914 14.3683C28.5923 14.1055 28.0698 13.7507 27.6237 13.3039C27.1903 12.8441 26.8462 12.2988 26.5913 11.668C26.3491 11.0373 26.228 10.3475 26.228 9.59855C26.228 8.84959 26.3491 8.15975 26.5913 7.52905C26.8462 6.89834 27.1903 6.35961 27.6237 5.91286C28.0698 5.45297 28.5923 5.0982 29.1914 4.84855C29.8032 4.58575 30.4723 4.45436 31.1988 4.45436ZM31.1988 12.3579C31.5175 12.3579 31.8234 12.2988 32.1165 12.1805C32.4224 12.0491 32.6901 11.8651 32.9195 11.6286C33.1489 11.3921 33.3274 11.103 33.4548 10.7614C33.595 10.4198 33.6651 10.0322 33.6651 9.59855C33.6651 9.16494 33.595 8.77732 33.4548 8.43568C33.3274 8.09405 33.1489 7.80498 32.9195 7.56847C32.6901 7.33195 32.4224 7.15456 32.1165 7.03631C31.8234 6.90491 31.5175 6.83921 31.1988 6.83921C30.8674 6.83921 30.5552 6.90491 30.262 7.03631C29.9689 7.15456 29.7076 7.33195 29.4782 7.56847C29.2487 7.80498 29.0639 8.09405 28.9237 8.43568C28.7963 8.77732 28.7325 9.16494 28.7325 9.59855C28.7325 10.0322 28.7963 10.4198 28.9237 10.7614C29.0639 11.103 29.2487 11.3921 29.4782 11.6286C29.7076 11.8651 29.9689 12.0491 30.262 12.1805C30.5552 12.2988 30.8674 12.3579 31.1988 12.3579Z" fill="white"/>
<path d="M42.0997 19C41.4369 19 40.8443 18.908 40.3217 18.7241C39.8119 18.5533 39.3658 18.3233 38.9834 18.0342C38.601 17.7583 38.2824 17.4495 38.0275 17.1079C37.7725 16.7663 37.5877 16.4246 37.473 16.083L39.8628 15.0975C40.0413 15.61 40.3344 16.0042 40.7423 16.2801C41.1502 16.5692 41.6026 16.7137 42.0997 16.7137C42.8899 16.7137 43.5145 16.4575 43.9733 15.945C44.4322 15.4457 44.6616 14.7427 44.6616 13.8361V13.166H44.5087C44.2155 13.5864 43.8268 13.9215 43.3424 14.1712C42.8708 14.4077 42.31 14.5259 41.66 14.5259C41.0992 14.5259 40.5511 14.4077 40.0158 14.1712C39.4932 13.9346 39.028 13.5996 38.6201 13.166C38.2123 12.7192 37.8809 12.1871 37.626 11.5695C37.3711 10.9519 37.2436 10.2621 37.2436 9.5C37.2436 8.7379 37.3711 8.04806 37.626 7.4305C37.8809 6.79979 38.2123 6.26763 38.6201 5.83402C39.028 5.38727 39.4932 5.04564 40.0158 4.80913C40.5511 4.57261 41.0992 4.45436 41.66 4.45436C42.31 4.45436 42.8708 4.57918 43.3424 4.82884C43.8268 5.06535 44.2155 5.39385 44.5087 5.81432H44.6616V4.76971H47.0514V13.7376C47.0514 14.5522 46.9303 15.2815 46.6882 15.9253C46.446 16.5823 46.1082 17.1342 45.6749 17.5809C45.2415 18.0408 44.719 18.389 44.1072 18.6255C43.5081 18.8752 42.839 19 42.0997 19ZM42.1953 12.2002C42.5012 12.2002 42.8007 12.1411 43.0939 12.0228C43.3998 11.9046 43.6674 11.7337 43.8969 11.5104C44.1263 11.2739 44.3111 10.9914 44.4513 10.6629C44.5915 10.3212 44.6616 9.93361 44.6616 9.5C44.6616 9.06639 44.5915 8.67877 44.4513 8.33714C44.3111 7.99551 44.1263 7.713 43.8969 7.48963C43.6674 7.25311 43.3998 7.07573 43.0939 6.95747C42.8007 6.83921 42.5012 6.78008 42.1953 6.78008C41.8894 6.78008 41.5899 6.83921 41.2967 6.95747C41.0036 7.07573 40.7423 7.25311 40.5129 7.48963C40.2834 7.72614 40.0986 8.01521 39.9584 8.35685C39.8182 8.68534 39.7481 9.06639 39.7481 9.5C39.7481 9.93361 39.8182 10.3212 39.9584 10.6629C40.0986 10.9914 40.2834 11.2739 40.5129 11.5104C40.7423 11.7337 41.0036 11.9046 41.2967 12.0228C41.5899 12.1411 41.8894 12.2002 42.1953 12.2002Z" fill="white"/>
<path d="M49.1866 14.4274V0.315353H51.6911V14.4274H49.1866Z" fill="white"/>
<path d="M62.6132 12.1017C62.1798 12.89 61.5935 13.5273 60.8543 14.0135C60.1278 14.4997 59.2356 14.7427 58.1777 14.7427C57.4639 14.7427 56.8012 14.6179 56.1894 14.3683C55.5903 14.1055 55.0677 13.7441 54.6216 13.2842C54.1755 12.8243 53.825 12.2856 53.5701 11.668C53.3279 11.0373 53.2069 10.3475 53.2069 9.59855C53.2069 8.90214 53.3279 8.24516 53.5701 7.62759C53.8123 6.99689 54.15 6.45159 54.5834 5.9917C55.0168 5.51867 55.5266 5.14419 56.1129 4.86826C56.7119 4.59232 57.3683 4.45436 58.0821 4.45436C58.8341 4.45436 59.5032 4.58575 60.0896 4.84855C60.6758 5.0982 61.1666 5.45297 61.5617 5.91286C61.9568 6.35961 62.2563 6.89177 62.4603 7.50934C62.6642 8.1269 62.7662 8.79703 62.7662 9.51971C62.7662 9.61169 62.7662 9.69053 62.7662 9.75622C62.7534 9.83506 62.747 9.90733 62.747 9.97303C62.7343 10.0387 62.7279 10.111 62.7279 10.1898H55.6732C55.7241 10.584 55.8261 10.9257 55.9791 11.2147C56.1447 11.4907 56.3423 11.7272 56.5717 11.9243C56.8139 12.1082 57.0752 12.2462 57.3556 12.3382C57.636 12.417 57.9228 12.4564 58.2159 12.4564C58.7895 12.4564 59.2611 12.325 59.6307 12.0622C60.0131 11.7863 60.3126 11.4447 60.5293 11.0373L62.6132 12.1017ZM60.3381 8.35685C60.3253 8.18603 60.268 7.99551 60.166 7.78527C60.0768 7.57503 59.9366 7.37794 59.7454 7.19398C59.567 7.01003 59.3376 6.85892 59.0571 6.74066C58.7895 6.62241 58.4645 6.56328 58.0821 6.56328C57.5468 6.56328 57.0752 6.72095 56.6673 7.03631C56.2595 7.35166 55.9727 7.79184 55.807 8.35685H60.3381Z" fill="white"/>
<path d="M68.8724 14.4274V0.315353H73.6903C74.3404 0.315353 74.9458 0.427041 75.5066 0.650415C76.0802 0.86065 76.5772 1.16286 76.9978 1.55705C77.4185 1.95124 77.7498 2.42427 77.992 2.97614C78.2342 3.51487 78.3553 4.11272 78.3553 4.76971C78.3553 5.43983 78.2342 6.05083 77.992 6.6027C77.7498 7.14142 77.4185 7.60788 76.9978 8.00208C76.5772 8.39627 76.0802 8.70505 75.5066 8.92842C74.9458 9.13866 74.3404 9.24378 73.6903 9.24378H71.4535V14.4274H68.8724ZM73.7286 6.72095C74.4041 6.72095 74.9139 6.52386 75.2581 6.12967C75.6022 5.73548 75.7743 5.28216 75.7743 4.76971C75.7743 4.52006 75.7296 4.27697 75.6404 4.04046C75.5639 3.80394 75.4365 3.60028 75.2581 3.42946C75.0924 3.2455 74.882 3.10097 74.6271 2.99585C74.3722 2.89073 74.0727 2.83818 73.7286 2.83818H71.4535V6.72095H73.7286Z" fill="white"/>
<path d="M79.9742 14.4274V0.315353H82.4788V14.4274H79.9742Z" fill="white"/>
<path d="M90.3036 13.4025H90.1507C89.8575 13.7704 89.5006 14.0858 89.08 14.3485C88.6722 14.6113 88.1432 14.7427 87.4932 14.7427C87.0089 14.7427 86.55 14.6573 86.1167 14.4865C85.6961 14.3288 85.3264 14.1055 85.0078 13.8164C84.6891 13.5273 84.4406 13.1791 84.2622 12.7718C84.0837 12.3645 83.9945 11.9177 83.9945 11.4315C83.9945 10.9322 84.0901 10.4855 84.2813 10.0913C84.4725 9.68396 84.7401 9.33575 85.0843 9.04668C85.4284 8.75761 85.8299 8.5408 86.2887 8.39627C86.7603 8.23859 87.2701 8.15975 87.8182 8.15975C88.43 8.15975 88.9335 8.21231 89.3286 8.31743C89.7237 8.40941 90.0487 8.50795 90.3036 8.61307V8.31743C90.3036 7.80498 90.1061 7.38451 89.711 7.05602C89.3158 6.71439 88.8251 6.54357 88.2388 6.54357C87.3721 6.54357 86.6392 6.91805 86.0402 7.66701L84.2239 6.38589C85.2181 5.0982 86.5755 4.45436 88.2962 4.45436C89.7492 4.45436 90.8581 4.80913 91.6228 5.51867C92.3876 6.21508 92.7699 7.25311 92.7699 8.63278V14.4274H90.3036V13.4025ZM90.3036 10.5052C90.0105 10.3607 89.7046 10.249 89.3859 10.1701C89.08 10.0781 88.7423 10.0322 88.3727 10.0322C87.7736 10.0322 87.3084 10.1701 86.977 10.4461C86.6584 10.7089 86.499 11.0373 86.499 11.4315C86.499 11.8257 86.652 12.1411 86.9579 12.3776C87.2765 12.6141 87.6398 12.7324 88.0476 12.7324C88.379 12.7324 88.6849 12.6732 88.9653 12.555C89.2457 12.4236 89.4815 12.2593 89.6727 12.0622C89.8766 11.852 90.0296 11.6155 90.1316 11.3527C90.2463 11.0768 90.3036 10.7943 90.3036 10.5052Z" fill="white"/>
<path d="M97.5188 13.9544L93.5804 4.76971H96.4291L98.7998 10.6234H98.9336L101.209 4.76971H104L98.1306 18.6846H95.4349L97.5188 13.9544Z" fill="white"/>
</svg>
