<svg width="22" height="22" viewBox="0 0 22 22" fill="none" xmlns="http://www.w3.org/2000/svg">
<path d="M16.4375 6.56068C16.4375 6.00785 15.9894 5.56147 15.4386 5.56147C14.8878 5.56147 14.4394 6.00785 14.4394 6.56068C14.4394 7.11148 14.8878 7.55786 15.4386 7.55786C15.9894 7.55786 16.4375 7.11148 16.4375 6.56068Z" fill="white"/>
<path d="M17.7686 14.3602C17.7316 15.1712 17.596 15.6118 17.4834 15.9045C17.3321 16.2925 17.1517 16.5699 16.859 16.861C16.5696 17.152 16.2922 17.332 15.9042 17.4816C15.6115 17.5959 15.1692 17.7319 14.3583 17.7706C13.4815 17.8092 13.2218 17.8174 10.9985 17.8174C8.77726 17.8174 8.51541 17.8092 7.63867 17.7706C6.82772 17.7319 6.3875 17.5959 6.09483 17.4816C5.70477 17.332 5.42938 17.152 5.13837 16.861C4.84529 16.5699 4.66486 16.2925 4.51566 15.9045C4.40301 15.6118 4.26534 15.1712 4.23038 14.3602C4.18765 13.4835 4.17982 13.2196 4.17982 11.0009C4.17982 8.77757 4.18765 8.51572 4.23038 7.63899C4.26534 6.82804 4.40301 6.38782 4.51566 6.09268C4.66486 5.70508 4.84529 5.42927 5.13837 5.13826C5.42938 4.84768 5.70477 4.66721 6.09483 4.51597C6.3875 4.40129 6.82772 4.26729 7.63867 4.22866C8.51541 4.19 8.77726 4.18014 10.9985 4.18014C13.2218 4.18014 13.4815 4.19 14.3583 4.22866C15.1692 4.26729 15.6115 4.40129 15.9042 4.51597C16.2922 4.66721 16.5696 4.84768 16.859 5.13826C17.1517 5.42927 17.3321 5.70508 17.4834 6.09268C17.596 6.38782 17.7316 6.82804 17.7686 7.63899C17.8093 8.51572 17.8192 8.77757 17.8192 11.0009C17.8192 13.2196 17.8093 13.4835 17.7686 14.3602ZM19.266 7.57077C19.2253 6.68457 19.0856 6.07911 18.878 5.55178C18.6667 5.00468 18.3835 4.54103 17.9199 4.07739C17.4583 3.61581 16.9946 3.33259 16.4475 3.11887C15.9181 2.91334 15.3147 2.77193 14.4281 2.73331C13.5415 2.69055 13.2583 2.68275 10.9985 2.68275C8.74066 2.68275 8.45542 2.69055 7.56882 2.73331C6.68425 2.77193 6.08126 2.91334 5.5494 3.11887C5.00436 3.33259 4.54072 3.61581 4.07914 4.07739C3.61549 4.54103 3.33228 5.00468 3.11895 5.55178C2.91342 6.07911 2.77368 6.68457 2.73093 7.57077C2.6923 8.45737 2.68243 8.74098 2.68243 11.0009C2.68243 13.2587 2.6923 13.5418 2.73093 14.4284C2.77368 15.313 2.91342 15.918 3.11895 16.4479C3.33228 16.9929 3.61549 17.4586 4.07914 17.9202C4.54072 18.3818 5.00436 18.667 5.5494 18.8804C6.08126 19.0859 6.68425 19.2256 7.56882 19.2663C8.45542 19.307 8.74066 19.3169 10.9985 19.3169C13.2583 19.3169 13.5415 19.307 14.4281 19.2663C15.3147 19.2256 15.9181 19.0859 16.4475 18.8804C16.9946 18.667 17.4583 18.3818 17.9199 17.9202C18.3835 17.4586 18.6667 16.9929 18.878 16.4479C19.0856 15.918 19.2253 15.313 19.266 14.4284C19.3067 13.5418 19.3166 13.2587 19.3166 11.0009C19.3166 8.74098 19.3067 8.45737 19.266 7.57077Z" fill="white"/>
<path d="M10.9984 13.7706C9.46812 13.7706 8.22639 12.5309 8.22639 11.0006C8.22639 9.46784 9.46812 8.22654 10.9984 8.22654C12.5291 8.22654 13.7725 9.46784 13.7725 11.0006C13.7725 12.5309 12.5291 13.7706 10.9984 13.7706ZM10.9984 6.72709C8.63948 6.72709 6.729 8.64166 6.729 11.0006C6.729 13.3575 8.63948 15.27 10.9984 15.27C13.3573 15.27 15.2699 13.3575 15.2699 11.0006C15.2699 8.64166 13.3573 6.72709 10.9984 6.72709Z" fill="white"/>
</svg>
