<svg width="32" height="36" viewBox="0 0 32 36" fill="none" xmlns="http://www.w3.org/2000/svg">
<path d="M6.53327 1.43102C5.23448 0.690779 3.70953 0.707895 2.41904 1.44171L17.544 15.8293L22.6251 10.5899L6.53327 1.43102Z" fill="white"/>
<path d="M0.906218 2.9126C0.536912 3.53517 0.325287 4.24759 0.325287 5.00281V30.9882C0.325287 31.7198 0.518239 32.4173 0.866798 33.027L16.0768 17.343L0.906218 2.9126Z" fill="white"/>
<path d="M29.3609 14.4247L24.5143 11.667L19.068 17.2808L25.7425 23.6285L29.363 21.5682C30.6659 20.8237 31.446 19.4887 31.446 17.9954C31.4439 16.5021 30.6659 15.1671 29.3609 14.4247Z" fill="white"/>
<path d="M17.6022 18.7949L2.35071 34.5218C3.01255 34.9111 3.73872 35.1165 4.46903 35.1165C5.17445 35.1165 5.88402 34.9325 6.53341 34.5624L23.8306 24.719L17.6022 18.7949Z" fill="white"/>
</svg>
