<svg width="15" height="14" viewBox="0 0 15 14" fill="none" xmlns="http://www.w3.org/2000/svg">
<path fill-rule="evenodd" clip-rule="evenodd" d="M12.3438 7.00007C12.3441 8.15986 11.9463 9.28461 11.2168 10.1862C10.4873 11.0878 9.47028 11.7116 8.33594 11.9532C7.20161 12.1948 6.0187 12.0397 4.98507 11.5136C3.95145 10.9876 3.12978 10.1226 2.6575 9.06332L1.09263 9.69895C1.71298 11.1203 2.80379 12.2848 4.18167 12.9966C5.55955 13.7084 7.14048 13.924 8.65868 13.6074C10.1769 13.2907 11.5397 12.461 12.5182 11.2577C13.4966 10.0544 14.0309 8.55094 14.0312 7.00007C14.0313 5.59127 13.5906 4.21775 12.7708 3.07202C11.9511 1.92628 10.7934 1.06575 9.45995 0.611035C8.12655 0.156315 6.6843 0.130195 5.33531 0.536336C3.98632 0.942476 2.79821 1.76052 1.9375 2.87582V0.812571H0.25V5.31257L1.09375 6.15632H5.03125V4.46882H2.896C3.45299 3.5032 4.31313 2.74842 5.34293 2.32161C6.37274 1.8948 7.51462 1.81982 8.59139 2.10831C9.66817 2.3968 10.6196 3.03263 11.2981 3.91712C11.9766 4.80162 12.3441 5.88532 12.3438 7.00007Z" fill="#006DEE"/>
</svg>
