<svg width="22" height="22" viewBox="0 0 22 22" fill="none" xmlns="http://www.w3.org/2000/svg">
<path fill-rule="evenodd" clip-rule="evenodd" d="M19.3172 11.0007C19.3172 15.5941 15.5935 19.3177 11.0001 19.3177C6.40676 19.3177 2.68307 15.5941 2.68307 11.0007C2.68307 6.40727 6.40676 2.68359 11.0001 2.68359C15.5935 2.68359 19.3172 6.40727 19.3172 11.0007ZM15.076 8.03604C15.5191 7.98315 15.9404 7.86547 16.3327 7.69139C16.0386 8.13131 15.6684 8.51535 15.2396 8.8255C15.2442 8.91938 15.2463 9.01359 15.2463 9.10851C15.2463 11.9997 13.0454 15.3337 9.02107 15.3337C7.78543 15.3337 6.63558 14.9712 5.66716 14.3502C5.83842 14.3709 6.01286 14.3814 6.18937 14.3814C7.21416 14.3814 8.15771 14.0315 8.90653 13.4445C7.94937 13.4266 7.14133 12.7941 6.8629 11.9251C6.99668 11.9503 7.13362 11.9637 7.27477 11.9637C7.47441 11.9637 7.66738 11.9373 7.85126 11.8869C6.85027 11.6859 6.0962 10.8019 6.0962 9.74171V9.71406C6.40003 9.88304 6.7399 9.97684 7.08739 9.98761C6.50039 9.59533 6.11408 8.92568 6.11408 8.16669C6.11408 7.76569 6.22193 7.38985 6.41036 7.0666C7.48946 8.39016 9.10162 9.26121 10.92 9.3526C10.883 9.19219 10.8637 9.02511 10.8637 8.85386C10.8637 7.64518 11.8433 6.66592 13.0513 6.66592C13.6806 6.66592 14.2495 6.93139 14.6484 7.35659C15.1386 7.26031 15.6086 7.08072 16.0381 6.82562C15.8746 7.33625 15.5282 7.7653 15.076 8.03604Z" fill="white"/>
</svg>
