<svg width="16" height="16" viewBox="0 0 16 16" fill="none" xmlns="http://www.w3.org/2000/svg">
<path d="M3.25 13.3V14.05H4.75V13.3H3.25ZM11.25 13.3V14.05H12.75V13.3H11.25ZM4.75 13.3V12.9999H3.25V13.3H4.75ZM7 10.75H9V9.25H7V10.75ZM11.25 12.9999V13.3H12.75V12.9999H11.25ZM9 10.75C10.2427 10.75 11.25 11.7573 11.25 12.9999H12.75C12.75 10.9287 11.071 9.25 9 9.25V10.75ZM4.75 12.9999C4.75 11.7573 5.75731 10.75 7 10.75V9.25C4.92898 9.25 3.25 10.9287 3.25 12.9999H4.75ZM8 3.25C6.48122 3.25 5.25 4.48122 5.25 6H6.75C6.75 5.30964 7.30964 4.75 8 4.75V3.25ZM10.75 6C10.75 4.48122 9.51878 3.25 8 3.25V4.75C8.69036 4.75 9.25 5.30964 9.25 6H10.75ZM8 8.75C9.51878 8.75 10.75 7.51878 10.75 6H9.25C9.25 6.69036 8.69036 7.25 8 7.25V8.75ZM8 7.25C7.30964 7.25 6.75 6.69036 6.75 6H5.25C5.25 7.51878 6.48122 8.75 8 8.75V7.25ZM8 14.25C4.54822 14.25 1.75 11.4518 1.75 8H0.25C0.25 12.2802 3.71979 15.75 8 15.75V14.25ZM14.25 8C14.25 11.4518 11.4518 14.25 8 14.25V15.75C12.2802 15.75 15.75 12.2802 15.75 8H14.25ZM8 1.75C11.4518 1.75 14.25 4.54822 14.25 8H15.75C15.75 3.71979 12.2802 0.25 8 0.25V1.75ZM8 0.25C3.71979 0.25 0.25 3.71979 0.25 8H1.75C1.75 4.54822 4.54822 1.75 8 1.75V0.25Z" fill="white"/>
</svg>
